HIERARCHY
ROOT Hips
{
	OFFSET 0.00000 0.00000 0.00000
	CHANNELS 6 Xposition Yposition Zposition Yrotation Zrotation Xrotation 
	JOINT Lumbar
	{
		OFFSET 0 0 0
		CHANNELS 3 Zrotation Xrotation Yrotation
		JOINT Neck
		{
			OFFSET 0.00 0.2701 0.00
			CHANNELS 3 Zrotation Xrotation Yrotation
			End Site
			{
				OFFSET 0.00 0.1379 0.00
			}
		}
		JOINT RightShoulder
		{
			OFFSET 0.0119 0.2289 0.1181
			CHANNELS 3 Zrotation Xrotation Yrotation
			JOINT RightElbow
			{
				OFFSET 0.00 -0.1475 0.00
				CHANNELS 2 Zrotation Yrotation
				JOINT RightWrist
				{
					OFFSET 0.00 -0.1605 0.00
					CHANNELS 2 Zrotation Xrotation
					End Site
					{
						OFFSET 0.0040 -0.1068 0.0006
					}
				}
			}
		}
		JOINT LeftShoulder
		{
			OFFSET 0.0119 0.2289 -0.1181
			CHANNELS 3 Zrotation Xrotation Yrotation
			JOINT LeftElbow
			{
				OFFSET 0.00 -0.1475 0.00
				CHANNELS 2 Zrotation Yrotation
				JOINT LeftWrist
				{
					OFFSET 0.00 -0.1605 0.00
					CHANNELS 2 Zrotation Xrotation
					End Site
					{
						OFFSET 0.0040 -0.1068 -0.0006
					}
				}
			}
		}
	}
	JOINT RightHip
	{
		OFFSET 0.0316 -0.0424 0.0458
		CHANNELS 3 Zrotation Xrotation Yrotation
		JOINT RightKnee
		{
			OFFSET 0.00 -0.2438 0.00
			CHANNELS 1 Zrotation
			JOINT RightAnkle
			{
				OFFSET 0.00 -0.2449 0.00
				CHANNELS 3 Zrotation Xrotation Yrotation
				End Site
				{
					OFFSET 0.1237 -0.0542 0.0051
				}
			}
		}
	}
	JOINT LeftHip
	{
		OFFSET 0.0316 -0.0424 -0.0458
		CHANNELS 3 Zrotation Xrotation Yrotation
		JOINT LeftKnee
		{
			OFFSET 0.00 -0.2438 0.00
			CHANNELS 1 Zrotation
			JOINT LeftAnkle
			{
				OFFSET 0.00 -0.2449 0.00
				CHANNELS 3 Zrotation Xrotation Yrotation
				End Site
				{
					OFFSET 0.1237 -0.0542 -0.0051
				}
			}
		}
	}
}
MOTION
Frames: 11
Frame Time: 0.02
-9e-05 -3e-05 5e-05 -178.62856 -35.60472 -3.80919 45.5631 2.89294 -3.92684 -17.13585 -2.00158 -1.46001 74.33586 -99.60578 55.63412 5.7869 108.44729 15.53862 2.85341 52.78074 104.1965 -55.6312 5.86645 -96.24028 14.05253 -0.32697 39.53557 -3.16402 -11.13925 -22.51871 -6.70719 -2.7901 -3.59503 43.8294 10.1482 6.51844 -27.50161 -6.48814 1.82593 3.12958
-0.00012 -3e-05 4e-05 -178.62925 -35.6109 -3.80774 45.56682 2.89354 -3.92956 -17.13381 -1.99906 -1.4603 74.36344 -99.60949 55.63412 5.7869 108.42258 15.53271 2.8686 52.80075 104.19625 -55.6312 5.86673 -96.27529 14.05291 -0.3187 39.539 -3.1669 -11.15317 -22.51937 -6.7074 -2.79043 -3.59521 43.83356 10.1399 6.48444 -27.50168 -6.48801 1.82888 3.13061
-0.00014 -3e-05 3e-05 -178.62994 -35.61706 -3.8063 45.5705 2.89413 -3.93227 -17.13177 -1.99655 -1.46059 74.39103 -99.61318 55.63412 5.78691 108.39793 15.52681 2.88377 52.82074 104.19601 -55.6312 5.867 -96.3102 14.05329 -0.31047 39.54242 -3.16979 -11.1671 -22.52003 -6.70762 -2.79077 -3.59538 43.8377 10.1316 6.4505 -27.50176 -6.48788 1.83182 3.13163
-0.00017 -4e-05 2e-05 -178.63063 -35.62323 -3.80485 45.57421 2.89472 -3.93498 -17.12973 -1.99404 -1.46088 74.41855 -99.61687 55.63412 5.78691 108.37329 15.52091 2.89892 52.84071 104.19576 -55.6312 5.86728 -96.34511 14.05367 -0.30223 39.54586 -3.17266 -11.18098 -22.52069 -6.70784 -2.7911 -3.59555 43.84187 10.12332 6.41656 -27.50184 -6.48775 1.83476 3.13266
-0.00019 -4e-05 1e-05 -178.63131 -35.62938 -3.80341 45.57793 2.89531 -3.93769 -17.12771 -1.99152 -1.46117 74.44602 -99.62059 55.63412 5.78691 108.34858 15.515 2.91407 52.86065 104.19549 -55.6312 5.86755 -96.38013 14.05403 -0.29395 39.54927 -3.17553 -11.19484 -22.52135 -6.70806 -2.79144 -3.59573 43.84601 10.11504 6.38267 -27.50192 -6.48762 1.8377 3.13368
-0.00021 -4e-05 -0 -178.63204 -35.63553 -3.80196 45.58152 2.89589 -3.94042 -17.12562 -1.98904 -1.46146 74.47384 -99.62422 55.63411 5.78691 108.32407 15.50913 2.92928 52.88074 104.19533 -55.63121 5.86783 -96.41476 14.05447 -0.28584 39.55268 -3.17844 -11.20892 -22.52201 -6.70827 -2.79176 -3.59589 43.85014 10.10673 6.34866 -27.50198 -6.48749 1.84065 3.13471
-0.00024 -5e-05 -1e-05 -178.63268 -35.64177 -3.80052 45.58544 2.8965 -3.94309 -17.12367 -1.98648 -1.46175 74.50097 -99.62803 55.63411 5.78692 108.2992 15.50318 2.94437 52.90055 104.19495 -55.63121 5.8681 -96.45016 14.05476 -0.27739 39.55618 -3.18126 -11.22251 -22.52267 -6.7085 -2.79213 -3.59609 43.85439 10.09844 6.31472 -27.50208 -6.48736 1.84359 3.13573
-0.00026 -5e-05 -2e-05 -178.63336 -35.64778 -3.79907 45.58891 2.89708 -3.94584 -17.12159 -1.98399 -1.46204 74.52868 -99.63168 55.63411 5.78692 108.27465 15.49729 2.95955 52.92053 104.19477 -55.63121 5.86838 -96.48484 14.05516 -0.26925 39.55943 -3.18418 -11.23663 -22.52331 -6.70871 -2.79244 -3.59624 43.85836 10.09022 6.28109 -27.50213 -6.48723 1.8465 3.13674
-0.00028 -5e-05 -3e-05 -178.63425 -35.65407 -3.79763 45.59242 2.89765 -3.94858 -17.11935 -1.98158 -1.46233 74.55732 -99.63509 55.63411 5.78692 108.25052 15.49152 2.97492 52.94109 104.19482 -55.63121 5.86864 -96.51868 14.05579 -0.26149 39.56303 -3.18717 -11.25109 -22.524 -6.70889 -2.79271 -3.59636 43.86264 10.08172 6.24632 -27.50217 -6.4871 1.84954 3.13783
-0.00031 -5e-05 -4e-05 -178.63443 -35.66044 -3.7962 45.59749 2.89835 -3.95107 -17.11801 -1.9787 -1.46261 74.58128 -99.63972 55.63411 5.78692 108.22403 15.48522 2.98944 52.95946 104.19351 -55.63121 5.86893 -96.5575 14.05539 -0.25157 39.56663 -3.18959 -11.26266 -22.52466 -6.70925 -2.7933 -3.59674 43.86709 10.07376 6.21355 -27.50245 -6.48697 1.85234 3.13873
-0.00033 -6e-05 -5e-05 -178.63579 -35.66558 -3.79471 45.59812 2.89871 -3.95428 -17.11478 -1.97682 -1.46296 74.61466 -99.64187 55.63411 5.78693 108.20249 15.47993 3.00559 52.9817 104.19512 -55.63121 5.86923 -96.5857 14.05698 -0.24615 39.56892 -3.19331 -11.28091 -22.52521 -6.70922 -2.79316 -3.59654 43.86994 10.06535 6.17949 -27.50211 -6.48686 1.85533 3.13987
